<svg width="108" height="23" viewBox="0 0 108 23" fill="none" xmlns="http://www.w3.org/2000/svg">
<path fill-rule="evenodd" clip-rule="evenodd" d="M15.6329 3.4459L16.928 1.06482L20.5997 3.31556L19.3051 5.69611C19.0777 6.11373 19.418 6.62154 19.864 6.5303L22.3451 6.02197L23.1481 10.4416L20.667 10.9494C16.6534 11.7711 13.5893 7.2039 15.6329 3.4459Z" fill="#1D1D26"/>
<path fill-rule="evenodd" clip-rule="evenodd" d="M13.3505 19.5541L11.9114 21.9352L7.83116 19.685L9.2702 17.3039C9.52287 16.8863 9.14469 16.3785 8.64863 16.4697L5.89224 16.9776L5 12.5585L7.75694 12.0506C12.2165 11.229 15.6207 15.7961 13.3505 19.5541Z" fill="#1D1D26"/>
<path fill-rule="evenodd" clip-rule="evenodd" d="M13.3494 3.4459L11.9109 1.06482L7.83063 3.31556L9.26968 5.69611C9.5218 6.11373 9.14416 6.62154 8.64811 6.5303L5.89115 6.02197L5 10.4416L7.75641 10.9494C12.2165 11.7711 15.6213 7.2039 13.35 3.4459H13.3494Z" fill="#1D1D26"/>
<path fill-rule="evenodd" clip-rule="evenodd" d="M15.6337 19.5541L16.9278 21.9352L20.6001 19.685L19.305 17.3039C19.0781 16.8863 19.4179 16.3785 19.8644 16.4697L22.3451 16.9776L23.1481 12.5585L20.6669 12.0506C16.6533 11.229 13.5896 15.7961 15.6327 19.5541H15.6337Z" fill="#1D1D26"/>
<path d="M90.5465 16.8752V12.3452C90.5465 11.7174 90.6892 11.154 90.9746 10.6557C91.2701 10.1473 91.6887 9.74866 92.2305 9.45927C92.7724 9.17041 93.4174 9.02599 94.1657 9.02599C94.5149 9.02254 94.8629 9.06773 95.1999 9.16029C95.5153 9.24023 95.8007 9.35481 96.0566 9.50404C96.3225 9.64367 96.549 9.81315 96.7364 10.0125H96.7659C96.9666 9.8103 97.1954 9.639 97.4452 9.50404C97.7197 9.35118 98.0129 9.2356 98.3172 9.16029C98.6594 9.0684 99.0121 9.02323 99.3661 9.02599C100.114 9.02599 100.759 9.16988 101.301 9.45927C101.843 9.74866 102.261 10.1468 102.557 10.6557C102.853 11.154 103 11.7168 103 12.3452V16.8752H100.695V12.4198C100.695 12.1709 100.631 11.9465 100.504 11.7472C100.386 11.5387 100.218 11.3638 100.016 11.2388C99.8024 11.1073 99.5565 11.0399 99.3066 11.0443C99.0407 11.0443 98.7995 11.1093 98.5831 11.2388C98.3806 11.3636 98.2128 11.5386 98.0955 11.7472C97.976 11.9505 97.9146 12.1833 97.918 12.4198V16.8752H95.6285V12.4198C95.6285 12.1709 95.5643 11.9465 95.4363 11.7472C95.3163 11.5357 95.1429 11.3603 94.934 11.2388C94.7205 11.1073 94.4745 11.0399 94.2247 11.0443C93.9587 11.0443 93.7176 11.1093 93.5011 11.2388C93.2986 11.3636 93.1308 11.5386 93.0135 11.7472C92.8943 11.9506 92.8329 12.1833 92.8361 12.4198V16.8752H90.5465ZM85.5383 17.0548C84.7606 17.0548 84.0855 16.9056 83.5147 16.6061C82.9534 16.297 82.52 15.8834 82.2146 15.3654C81.9092 14.8372 81.7565 14.2537 81.7565 13.6157V9.20506H84.0465V13.556C84.0465 13.8252 84.1102 14.0746 84.2382 14.3038C84.3662 14.5228 84.5389 14.7024 84.7553 14.842C84.9817 14.9715 85.2382 15.0366 85.5236 15.0366C85.7995 15.0366 86.0454 14.9715 86.2623 14.842C86.4888 14.7024 86.6662 14.5228 86.7942 14.3038C86.9221 14.0746 86.9864 13.8252 86.9864 13.556V9.20506H89.2759V13.6157C89.2759 14.2537 89.128 14.8372 88.8325 15.3654C88.5371 15.8834 88.109 16.2975 87.5477 16.6061C86.9959 16.9051 86.3261 17.0548 85.5383 17.0548ZM74.3808 16.8752V15.0366H78.0299C78.1284 15.0366 78.2168 15.0163 78.2958 14.9763C78.3743 14.9268 78.4385 14.8617 78.4875 14.7823C78.5357 14.7038 78.5613 14.6131 78.5613 14.5207C78.5613 14.4282 78.5357 14.3375 78.4875 14.259C78.4415 14.1821 78.3751 14.1199 78.2958 14.0794C78.216 14.0293 78.1238 14.0034 78.0299 14.0048H76.7003C76.2074 14.0048 75.7593 13.9248 75.356 13.7655C74.9728 13.6048 74.6441 13.3346 74.4102 12.9879C74.1838 12.6292 74.0706 12.1656 74.0706 11.5975C74.0706 11.1588 74.1738 10.7602 74.3808 10.4015C74.596 10.0439 74.8954 9.74587 75.2522 9.53388C75.6246 9.31517 76.0481 9.20161 76.4786 9.20506H80.1272V11.0592H76.833C76.7022 11.0565 76.5753 11.1048 76.4786 11.194C76.4354 11.2367 76.4013 11.2879 76.3784 11.3445C76.3555 11.401 76.3443 11.4617 76.3454 11.5228C76.3454 11.6625 76.3902 11.7819 76.4786 11.8815C76.5753 11.9707 76.7022 12.019 76.833 12.0163H78.1331C78.6844 12.0163 79.1573 12.1011 79.5512 12.27C79.9551 12.4299 80.2652 12.6889 80.4822 13.0481C80.7086 13.4068 80.8218 13.8699 80.8218 14.4381C80.8218 14.8868 80.7086 15.2956 80.4822 15.6638C80.2673 16.0309 79.9617 16.3351 79.5954 16.5464C79.231 16.766 78.8177 16.8752 78.3548 16.8752H74.3808ZM69.392 9.02599C70.0323 9.02599 70.5984 9.13044 71.0907 9.33989C71.5743 9.5265 72.0091 9.82318 72.3613 10.207C72.7204 10.5831 72.9972 11.0314 73.1738 11.5228C73.3608 12.0211 73.4545 12.5743 73.4545 13.1824C73.4545 13.9397 73.2971 14.6129 72.9816 15.2007C72.6903 15.7641 72.2508 16.235 71.7116 16.5613C71.1697 16.8901 70.5394 17.0548 69.8206 17.0548C69.5152 17.0548 69.2245 17.0148 68.9486 16.9354C68.6873 16.8577 68.4386 16.7417 68.2104 16.5912C67.9952 16.4434 67.8097 16.2557 67.6638 16.038H67.619V20.1203H65.3295V13.1819C65.3295 12.3345 65.4969 11.6017 65.8318 10.984C66.1565 10.376 66.6493 9.87707 67.2499 9.54827C67.8607 9.19973 68.5748 9.02545 69.392 9.02545V9.02599ZM69.392 11.0293C69.0376 11.0293 68.7275 11.1189 68.4615 11.2985C68.2051 11.4679 68.0082 11.7072 67.8702 12.0163C67.7328 12.3148 67.6638 12.6543 67.6638 13.0327C67.6638 13.4116 67.7328 13.7506 67.8702 14.0495C68.0082 14.3485 68.2051 14.5878 68.4615 14.7674C68.7275 14.9369 69.0376 15.0216 69.392 15.0216C69.7464 15.0216 70.0518 14.9364 70.3077 14.7674C70.5652 14.5865 70.7696 14.3385 70.8991 14.0495C71.0465 13.7506 71.1202 13.4116 71.1202 13.0327C71.1202 12.6543 71.0465 12.3153 70.8991 12.0163C70.7611 11.7072 70.5642 11.4674 70.3077 11.2985C70.0518 11.1189 69.7464 11.0293 69.392 11.0293ZM61.8499 16.8752V9.20506H64.1547V16.8752H61.8499ZM63.002 8.33795C62.6376 8.33795 62.3228 8.20365 62.0568 7.93451C61.7909 7.66537 61.6577 7.34614 61.6577 6.97734C61.6577 6.60854 61.7909 6.28984 62.0568 6.0207C62.3228 5.74144 62.6376 5.60181 63.002 5.60181C63.3664 5.60181 63.6818 5.74144 63.9478 6.0207C64.2137 6.28984 64.3464 6.60854 64.3464 6.97734C64.3464 7.34614 64.2137 7.66484 63.9478 7.93451C63.6818 8.20365 63.3664 8.33795 63.002 8.33795ZM56.8411 17.0548C56.0634 17.0548 55.3641 16.8805 54.7433 16.5315C54.1342 16.1936 53.6246 15.6984 53.2662 15.0962C52.9118 14.4882 52.7344 13.8054 52.7344 13.0476C52.7344 12.2802 52.9118 11.5975 53.2662 10.9995C53.6246 10.3974 54.1342 9.90215 54.7433 9.56426C55.3641 9.20505 56.0634 9.02599 56.8411 9.02599C57.6194 9.02599 58.3134 9.20505 58.9243 9.56426C59.5311 9.8998 60.0365 10.3959 60.3865 10.9995C60.7509 11.5975 60.9331 12.2802 60.9331 13.0476C60.9331 13.8054 60.7509 14.4882 60.3865 15.0962C60.0365 15.6999 59.5311 16.1959 58.9243 16.5315C58.3039 16.8805 57.6094 17.0548 56.8411 17.0548ZM56.8411 15.0366C57.2055 15.0366 57.5209 14.9465 57.7869 14.7674C58.0528 14.588 58.2669 14.3402 58.4072 14.0495C58.5551 13.7506 58.6288 13.4116 58.6288 13.0327C58.6288 12.6639 58.5551 12.3303 58.4072 12.0307C58.2669 11.7402 58.0528 11.4926 57.7869 11.3134C57.5209 11.1338 57.2055 11.0443 56.8411 11.0443C56.4767 11.0443 56.1566 11.1338 55.8812 11.3134C55.6151 11.4928 55.4008 11.7405 55.2604 12.0313C55.1099 12.343 55.0341 12.6863 55.0392 13.0332C55.0392 13.4116 55.1129 13.7506 55.2604 14.0495C55.4009 14.3402 55.6151 14.588 55.8812 14.7674C56.1566 14.9465 56.4767 15.0366 56.8411 15.0366ZM45.2929 19.9109V17.9219H49.0742C49.2221 17.9219 49.3454 17.8724 49.4438 17.7727C49.4918 17.7298 49.5299 17.6767 49.5554 17.6172C49.5809 17.5577 49.5931 17.4932 49.5913 17.4284V15.739H49.547C49.36 15.9591 49.1467 16.155 48.912 16.322C48.695 16.4819 48.4486 16.6013 48.1732 16.6812C47.8801 16.7646 47.5767 16.8048 47.2722 16.8006C46.6024 16.8006 46.0016 16.6407 45.4698 16.322C44.948 15.9932 44.5341 15.5397 44.2287 14.9614C43.9338 14.3837 43.7858 13.7255 43.7858 12.9879C43.7858 12.2604 43.9385 11.5975 44.2439 10.9995C44.5588 10.4015 45.0169 9.92293 45.6178 9.56426C46.218 9.20505 46.9521 9.02599 47.8188 9.02599C48.6461 9.02599 49.3601 9.20026 49.9609 9.54934C50.5643 9.88078 51.0575 10.385 51.379 10.999C51.7139 11.6172 51.8813 12.3452 51.8813 13.1824V17.6677C51.8813 18.3552 51.6797 18.8988 51.2758 19.2975C50.8819 19.7062 50.3353 19.9103 49.636 19.9103L45.2929 19.9109ZM47.8336 14.8569C48.188 14.8569 48.4934 14.777 48.7498 14.6177C49.0028 14.4514 49.2068 14.219 49.3401 13.9451C49.4802 13.6567 49.5511 13.339 49.547 13.0178C49.547 12.6591 49.4786 12.3303 49.3406 12.0313C49.2027 11.7323 49.0057 11.4978 48.7493 11.3283C48.4934 11.1487 48.188 11.0592 47.833 11.0592C47.4887 11.0592 47.1833 11.1439 46.9173 11.3134C46.6614 11.4829 46.4645 11.712 46.3265 12.0009C46.1891 12.2903 46.1201 12.6138 46.1201 12.973C46.1201 13.3221 46.1886 13.6408 46.3265 13.9302C46.4645 14.2089 46.6614 14.4333 46.9179 14.6027C47.1833 14.7722 47.4887 14.8569 47.8336 14.8569ZM39.1314 17.0548C38.3537 17.0548 37.6544 16.8805 37.0341 16.5315C36.4248 16.1937 35.915 15.6985 35.5565 15.0962C35.2021 14.4882 35.0247 13.8054 35.0247 13.0476C35.0247 12.2802 35.2021 11.5975 35.5565 10.9995C35.915 10.3973 36.4248 9.90203 37.0341 9.56426C37.6544 9.20505 38.3537 9.02599 39.1314 9.02599C39.9097 9.02599 40.6037 9.20505 41.2145 9.56426C41.8214 9.89984 42.3268 10.3959 42.6768 10.9995C43.0412 11.5975 43.2234 12.2802 43.2234 13.0476C43.2234 13.8054 43.0412 14.4882 42.6768 15.0962C42.3268 15.6998 41.8214 16.1959 41.2145 16.5315C40.5942 16.8805 39.8997 17.0548 39.1314 17.0548ZM39.1314 15.0366C39.4958 15.0366 39.8107 14.9465 40.0771 14.7674C40.343 14.5879 40.5571 14.3402 40.6975 14.0495C40.8449 13.7506 40.9186 13.4116 40.9186 13.0327C40.9186 12.6639 40.8449 12.3303 40.6975 12.0307C40.557 11.7403 40.343 11.4928 40.0771 11.3134C39.8112 11.1338 39.4958 11.0443 39.1314 11.0443C38.767 11.0443 38.4469 11.1338 38.1715 11.3134C37.9054 11.4928 37.6911 11.7405 37.5507 12.0313C37.4002 12.343 37.3244 12.6863 37.3295 13.0332C37.3295 13.4116 37.4032 13.7506 37.5507 14.0495C37.6912 14.3402 37.9054 14.588 38.1715 14.7674C38.4469 14.9465 38.767 15.0366 39.1314 15.0366ZM31.7984 16.8752C31.1581 16.8752 30.5967 16.7313 30.1144 16.4419C29.6453 16.1666 29.2576 15.7691 28.9917 15.2908C28.7258 14.8122 28.5926 14.2835 28.5926 13.7058V6.40922H31.0743V13.8849C31.0743 14.1247 31.1586 14.3336 31.3255 14.5132C31.493 14.6923 31.6994 14.7823 31.9458 14.7823H34.6787V16.8752H31.7984Z" fill="#1D1D26"/>
</svg>
