<svg width="108" height="23" viewBox="0 0 108 23" fill="none" xmlns="http://www.w3.org/2000/svg">
<path fill-rule="evenodd" clip-rule="evenodd" d="M16.3809 15.7113C15.6842 15.7113 15.016 15.434 14.5234 14.9404C14.0307 14.4468 13.7539 13.7773 13.7539 13.0792V0.97168H8.5V13.0792C8.5 17.4401 12.0286 20.9755 16.3809 20.9755H22.1603V15.7113H16.3809ZM32.1428 6.23583C31.5218 6.23583 30.9069 6.35838 30.3332 6.59647C29.7595 6.83456 29.2383 7.18354 28.7992 7.62348C28.3601 8.06342 28.0118 8.58571 27.7742 9.16051C27.5365 9.73532 27.4142 10.3514 27.4142 10.9736C27.4142 11.5957 27.5365 12.2118 27.7742 12.7866C28.0118 13.3614 28.3601 13.8837 28.7992 14.3237C29.2383 14.7636 29.7595 15.1126 30.3332 15.3507C30.9069 15.5888 31.5218 15.7113 32.1428 15.7113C33.3969 15.7113 34.5996 15.2121 35.4864 14.3237C36.3731 13.4352 36.8713 12.2301 36.8713 10.9736C36.8713 9.71704 36.3731 8.51198 35.4864 7.62348C34.5996 6.73498 33.3969 6.23583 32.1428 6.23583ZM22.1603 10.9736C22.1603 5.44989 26.6298 0.97168 32.1428 0.97168C37.6557 0.97168 42.1253 5.44989 42.1253 10.9736C42.1253 16.4972 37.6557 20.9755 32.1428 20.9755C26.6298 20.9755 22.1603 16.4972 22.1603 10.9736ZM88.8854 6.23583C87.6313 6.23583 86.4286 6.73498 85.5418 7.62348C84.655 8.51198 84.1569 9.71704 84.1569 10.9736C84.1569 12.2301 84.655 13.4352 85.5418 14.3237C86.4286 15.2121 87.6313 15.7113 88.8854 15.7113C90.1395 15.7113 91.3422 15.2121 92.229 14.3237C93.1158 13.4352 93.614 12.2301 93.614 10.9736C93.614 9.71704 93.1158 8.51198 92.229 7.62348C91.3422 6.73498 90.1395 6.23583 88.8854 6.23583ZM78.9029 10.9736C78.9029 5.44989 83.3725 0.97168 88.8854 0.97168C94.3984 0.97168 98.8679 5.44989 98.8679 10.9736C98.8679 16.4972 94.3984 20.9755 88.8854 20.9755C83.3725 20.9755 78.9029 16.4972 78.9029 10.9736ZM53.1586 0.97168C47.6456 0.97168 43.1761 5.44989 43.1761 10.9736C43.1761 16.4972 47.6456 20.9755 53.1586 20.9755H67.8696C68.9041 20.9755 69.9019 20.8175 70.8402 20.5248L73.649 22.0283L76.6795 16.3409C77.4493 14.8931 77.852 13.2778 77.8521 11.6374V10.9736C77.8521 5.44989 73.3826 0.97168 67.8696 0.97168H53.1586ZM72.5982 10.9736C72.5982 9.71704 72.1 8.51198 71.2132 7.62348C70.3264 6.73498 69.1237 6.23583 67.8696 6.23583H53.1586C52.5376 6.23583 51.9227 6.35838 51.349 6.59647C50.7753 6.83456 50.2541 7.18354 49.815 7.62348C49.3759 8.06342 49.0276 8.58571 48.79 9.16051C48.5523 9.73532 48.43 10.3514 48.43 10.9736C48.43 11.5957 48.5523 12.2118 48.79 12.7866C49.0276 13.3614 49.3759 13.8837 49.815 14.3237C50.2541 14.7636 50.7753 15.1126 51.349 15.3507C51.9227 15.5888 52.5376 15.7113 53.1586 15.7113H67.8696C69.1174 15.7113 70.3146 15.2172 71.2003 14.3367C72.086 13.4562 72.5885 12.2605 72.5982 11.0104V10.9736Z" fill="#1D1D26"/>
<path d="M101.5 2.28772C101.5 2.63675 101.361 2.97149 101.115 3.2183C100.868 3.4651 100.533 3.60376 100.184 3.60376C99.8349 3.60376 99.5002 3.4651 99.2534 3.2183C99.0066 2.97149 98.8679 2.63675 98.8679 2.28772C98.8679 1.93868 99.0066 1.60394 99.2534 1.35714C99.5002 1.11033 99.8349 0.97168 100.184 0.97168C100.533 0.97168 100.868 1.11033 101.115 1.35714C101.361 1.60394 101.5 1.93868 101.5 2.28772Z" fill="#1D1D26"/>
</svg>
