<svg width="108" height="23" viewBox="0 0 108 23" fill="none" xmlns="http://www.w3.org/2000/svg">
<path d="M61.5219 15.7858H63.6905V7.87095H61.5219V15.7858ZM61.5219 6.63668H63.6905V4.75439H61.5219V6.63668Z" fill="#1D1D26"/>
<path d="M65.0881 18.3778H67.2568V14.8909H67.2884C67.7507 15.5698 68.5004 16.0172 69.6482 16.0172C71.7532 16.0172 73.1884 14.3972 73.1884 11.8361C73.1884 9.36747 71.8011 7.65491 69.6324 7.65491C68.5162 7.65491 67.7507 8.16408 67.2247 8.85834H67.1768V7.87091H65.0881V18.3778ZM69.1859 14.2738C67.8944 14.2738 67.2088 13.3326 67.2088 11.8978C67.2088 10.4783 67.7507 9.35208 69.1064 9.35208C70.4458 9.35208 70.9876 10.4012 70.9876 11.8978C70.9876 13.3943 70.2863 14.2738 69.1859 14.2738Z" fill="#1D1D26"/>
<path d="M77.5142 16.0172C79.5554 16.0172 80.9586 15.0606 80.9586 13.4715C80.9586 11.6201 79.4438 11.2498 78.0723 10.9721C76.9082 10.7406 75.8241 10.6789 75.8241 10.0001C75.8241 9.42921 76.3822 9.12065 77.2272 9.12065C78.1523 9.12065 78.7104 9.42921 78.8057 10.2778H80.767C80.6079 8.68865 79.4117 7.65491 77.2593 7.65491C75.3934 7.65491 73.9265 8.47265 73.9265 10.1852C73.9265 11.9132 75.3618 12.2989 76.8287 12.5766C77.9449 12.7926 78.9811 12.8698 78.9811 13.6258C78.9811 14.1812 78.4392 14.5361 77.4826 14.5361C76.5096 14.5361 75.8399 14.1349 75.6967 13.2246H73.6875C73.8149 14.9063 75.1386 16.0172 77.5142 16.0172Z" fill="#1D1D26"/>
<path d="M89.1919 15.7857V7.87085H87.0232V12.4377C87.0232 13.4868 86.4014 14.2274 85.381 14.2274C84.456 14.2274 84.0258 13.7183 84.0258 12.7926V7.87085H81.8729V13.1474C81.8729 14.8754 82.8933 16.0017 84.7113 16.0017C85.8596 16.0017 86.4972 15.5852 87.0553 14.86H87.1032V15.7857H89.1919Z" fill="#1D1D26"/>
<path d="M90.5946 15.7858H92.7633V11.1881C92.7633 10.1389 93.3535 9.46008 94.2306 9.46008C95.0278 9.46008 95.4901 9.92291 95.4901 10.8178V15.7858H97.6587V11.1881C97.6587 10.1389 98.2168 9.46008 99.1256 9.46008C99.9232 9.46008 100.386 9.92291 100.386 10.8178V15.7858H102.554V10.4629C102.554 8.73491 101.581 7.65491 99.859 7.65491C98.8228 7.65491 97.9615 8.17947 97.4034 9.04347H97.3718C96.9732 8.21034 96.144 7.65491 95.1073 7.65491C93.9753 7.65491 93.1781 8.21034 92.7317 8.93547H92.6838V7.87091H90.5946V15.7858Z" fill="#1D1D26"/>
<path d="M5 15.7858H7.16861V4.75439H5V15.7858Z" fill="#1D1D26"/>
<path d="M12.4712 16.0172C15.0066 16.0172 16.7446 14.1966 16.7446 11.8361C16.7446 9.47547 15.0066 7.65491 12.4712 7.65491C9.93582 7.65491 8.19775 9.47547 8.19775 11.8361C8.19775 14.1966 9.93582 16.0172 12.4712 16.0172ZM12.4712 14.4126C11.1318 14.4126 10.3983 13.3789 10.3983 11.8361C10.3983 10.2932 11.1318 9.24408 12.4712 9.24408C13.7947 9.24408 14.5441 10.2932 14.5441 11.8361C14.5441 13.3789 13.7947 14.4126 12.4712 14.4126Z" fill="#1D1D26"/>
<path d="M21.3564 18.4858C22.5682 18.4858 23.6207 18.2081 24.3063 17.5909C24.9122 17.0509 25.279 16.2949 25.279 15.1841V7.87091H23.1901V8.70408H23.1582C22.6639 8.04065 21.9145 7.65491 20.8939 7.65491C18.821 7.65491 17.354 9.16691 17.354 11.5275C17.354 13.9189 19.1399 15.3075 20.9577 15.3075C21.9942 15.3075 22.6161 14.9063 23.0944 14.3818H23.1423V15.2458C23.1423 16.3258 22.5523 16.8966 21.3245 16.8966C20.3199 16.8966 19.8574 16.5109 19.6821 16.0172H17.5294C17.7526 17.5601 19.124 18.4858 21.3564 18.4858ZM21.3245 13.6258C20.2083 13.6258 19.4748 12.8389 19.4748 11.4966C19.4748 10.1698 20.2083 9.33665 21.3085 9.33665C22.6161 9.33665 23.2539 10.3241 23.2539 11.4812C23.2539 12.6538 22.6958 13.6258 21.3245 13.6258Z" fill="#1D1D26"/>
<path d="M30.5503 16.0172C33.0856 16.0172 34.8237 14.1966 34.8237 11.8361C34.8237 9.47547 33.0856 7.65491 30.5503 7.65491C28.0149 7.65491 26.2768 9.47547 26.2768 11.8361C26.2768 14.1966 28.0149 16.0172 30.5503 16.0172ZM30.5503 14.4126C29.2108 14.4126 28.4773 13.3789 28.4773 11.8361C28.4773 10.2932 29.2108 9.24408 30.5503 9.24408C31.8737 9.24408 32.6232 10.2932 32.6232 11.8361C32.6232 13.3789 31.8737 14.4126 30.5503 14.4126Z" fill="#1D1D26"/>
<path fill-rule="evenodd" clip-rule="evenodd" d="M47.9753 2.5C53.1123 2.5 57.2771 6.52944 57.2771 11.5C57.2771 16.4706 53.1123 20.5 47.9753 20.5C42.8381 20.5 38.6736 16.4706 38.6736 11.5C38.6736 6.52944 42.8381 2.5 47.9753 2.5ZM47.6391 3.17347C46.5779 3.31796 45.5675 4.14299 44.7831 5.52283C44.5556 5.92307 44.3503 6.36526 44.1714 6.8427C45.238 6.58338 46.4095 6.43049 47.6391 6.40684V3.17347ZM43.3853 7.05886C43.6078 6.38331 43.8799 5.76178 44.1939 5.20929C44.5827 4.52527 45.0442 3.93458 45.5641 3.4809C42.7369 4.27535 40.5085 6.43156 39.6874 9.16706C40.1563 8.66401 40.7667 8.21752 41.4737 7.84132C42.0447 7.53743 42.6871 7.27409 43.3853 7.05886ZM43.1619 7.81949C42.8938 8.85143 42.7359 9.98503 42.7114 11.1747H39.3696C39.519 10.1479 40.3717 9.17026 41.7978 8.41138C42.2114 8.19124 42.6684 7.99261 43.1619 7.81949ZM43.384 11.1747C43.4117 9.8764 43.6049 8.65753 43.9245 7.58059C45.0376 7.27135 46.2973 7.08442 47.6391 7.05755V8.46286C47.1385 9.70279 46.1176 10.6905 44.836 11.1747H43.384ZM42.7114 11.8253H39.3696C39.519 12.8521 40.3717 13.8297 41.7978 14.5886C42.2114 14.8088 42.6684 15.0074 43.1619 15.1805C42.8938 14.1486 42.7359 13.015 42.7114 11.8253ZM43.9245 15.4194C43.6049 14.3425 43.4117 13.1236 43.384 11.8253H44.836C46.1176 12.3095 47.1385 13.2972 47.6391 14.5371V15.9424C46.2973 15.9156 45.0376 15.7286 43.9245 15.4194ZM43.3853 15.9411C42.6871 15.7259 42.0447 15.4626 41.4737 15.1587C40.7667 14.7825 40.1563 14.336 39.6874 13.8329C40.5085 16.5684 42.7369 18.7247 45.5641 19.5191C45.0442 19.0654 44.5827 18.4747 44.1939 17.7907C43.8799 17.2382 43.6078 16.6167 43.3853 15.9411ZM47.6391 19.8265C46.5779 19.682 45.5675 18.857 44.7831 17.4772C44.5556 17.0769 44.3503 16.6347 44.1714 16.1573C45.238 16.4166 46.4095 16.5695 47.6391 16.5931V19.8265ZM50.3864 19.5191C50.9063 19.0654 51.3677 18.4747 51.7566 17.7907C52.0705 17.2382 52.343 16.6167 52.5653 15.9411C53.2634 15.7259 53.9057 15.4626 54.4768 15.1587C55.1837 14.7825 55.7944 14.336 56.2632 13.8329C55.4419 16.5684 53.2137 18.7247 50.3864 19.5191ZM51.7793 16.1573C51.6003 16.6347 51.3947 17.0769 51.1673 17.4772C50.3831 18.857 49.3726 19.682 48.3115 19.8265V16.5931C49.541 16.5695 50.7126 16.4166 51.7793 16.1573ZM52.7886 15.1805C53.282 15.0074 53.7392 14.8088 54.1527 14.5886C55.5791 13.8297 56.4316 12.8521 56.5809 11.8253H53.2392C53.2146 13.015 53.0565 14.1486 52.7886 15.1805ZM52.5667 11.8253C52.5388 13.1236 52.3458 14.3425 52.0258 15.4194C50.913 15.7286 49.6533 15.9156 48.3115 15.9424V14.5382C48.8119 13.2978 49.8331 12.3096 51.1149 11.8253H52.5667ZM53.2392 11.1747H56.5809C56.4316 10.1479 55.5791 9.17026 54.1527 8.41138C53.7392 8.19124 53.282 7.99261 52.7886 7.81949C53.0565 8.85143 53.2146 9.98503 53.2392 11.1747ZM52.0258 7.58059C52.3458 8.65753 52.5388 9.8764 52.5667 11.1747H51.115C49.8331 10.6904 48.8119 9.7022 48.3115 8.46182V7.05755C49.6533 7.08442 50.913 7.27135 52.0258 7.58059ZM52.5653 7.05886C53.2634 7.27409 53.9057 7.53743 54.4768 7.84132C55.1837 8.21752 55.7944 8.66401 56.2632 9.16706C55.4419 6.43156 53.2137 4.27535 50.3864 3.4809C50.9063 3.93458 51.3677 4.52527 51.7566 5.20929C52.0705 5.76178 52.343 6.38331 52.5653 7.05886ZM48.3115 3.17347C49.3726 3.31796 50.3831 4.14299 51.1673 5.52283C51.3947 5.92308 51.6003 6.36526 51.7793 6.8427C50.7126 6.58338 49.541 6.43049 48.3115 6.40684V3.17347Z" fill="#1D1D26"/>
</svg>
