<svg width="108" height="23" viewBox="0 0 108 23" fill="none" xmlns="http://www.w3.org/2000/svg">
<g clip-path="url(#clip0_32_5020)">
<path d="M16.27 16.418H21.8883L7.97048 2.50005H2.35205L16.27 16.418Z" fill="#1D1D26"/>
<path d="M10.8569 2.50005L24.2735 15.9166V2.50005H20.6428V6.73592L16.4069 2.50005L10.8569 2.50005Z" fill="#1D1D26"/>
<path d="M0 2.96596V16.4179H3.63076V12.182L7.86661 16.4179H13.452L0 2.96596Z" fill="#1D1D26"/>
<path d="M33.0351 14.3251H36.2882V16.2422H30.5516V6.04704H33.0351V14.3251Z" fill="#1D1D26"/>
<path d="M40.7259 16.3584C39.932 16.3584 39.2155 16.1889 38.5765 15.85C37.9471 15.5112 37.4485 15.027 37.0806 14.3977C36.7224 13.7684 36.5433 13.0326 36.5433 12.1902C36.5433 11.3576 36.7272 10.6266 37.0951 9.99727C37.4631 9.35821 37.9665 8.8693 38.6055 8.53043C39.2446 8.19156 39.961 8.02213 40.7549 8.02213C41.5489 8.02213 42.2653 8.19156 42.9044 8.53043C43.5433 8.8693 44.0468 9.35821 44.4147 9.99727C44.7827 10.6266 44.9666 11.3576 44.9666 12.1902C44.9666 13.0229 44.7778 13.7587 44.4002 14.3977C44.0323 15.027 43.524 15.5112 42.8753 15.85C42.2363 16.1889 41.5198 16.3584 40.7259 16.3584ZM40.7259 14.2089C41.2003 14.2089 41.6021 14.0347 41.9313 13.6861C42.2701 13.3375 42.4396 12.839 42.4396 12.1902C42.4396 11.5415 42.275 11.0429 41.9458 10.6944C41.6263 10.3458 41.2293 10.1715 40.7549 10.1715C40.2708 10.1715 39.869 10.3458 39.5495 10.6944C39.23 11.0332 39.0703 11.5319 39.0703 12.1902C39.0703 12.839 39.2252 13.3375 39.535 13.6861C39.8545 14.0347 40.2515 14.2089 40.7259 14.2089Z" fill="#1D1D26"/>
<path d="M48.9273 8.02213C49.4986 8.02213 49.9972 8.13831 50.4232 8.37068C50.8589 8.60305 51.1929 8.90805 51.4253 9.28562V8.13831H53.9088V16.2277C53.9088 16.9732 53.7587 17.646 53.4585 18.2463C53.1681 18.8563 52.7179 19.3404 52.1079 19.6986C51.5076 20.0569 50.7572 20.236 49.8568 20.236C48.6562 20.236 47.6832 19.9503 46.9377 19.3791C46.1922 18.8176 45.7662 18.0527 45.6597 17.0845H48.1141C48.1915 17.3943 48.3755 17.6363 48.6659 17.8106C48.9564 17.9946 49.3146 18.0866 49.7407 18.0866C50.2538 18.0866 50.6604 17.9365 50.9606 17.6363C51.2704 17.3459 51.4253 16.8763 51.4253 16.2277V15.0803C51.1832 15.4579 50.8492 15.7677 50.4232 16.0098C49.9972 16.2421 49.4986 16.3584 48.9273 16.3584C48.2593 16.3584 47.6541 16.1889 47.112 15.85C46.5698 15.5015 46.1389 15.0126 45.8195 14.3832C45.5096 13.7442 45.3547 13.0084 45.3547 12.1757C45.3547 11.3431 45.5096 10.6121 45.8195 9.98273C46.1389 9.35343 46.5698 8.8693 47.112 8.53043C47.6541 8.19156 48.2593 8.02213 48.9273 8.02213ZM51.4253 12.1902C51.4253 11.5706 51.251 11.0817 50.9025 10.7234C50.5636 10.3652 50.1473 10.186 49.6535 10.186C49.1597 10.186 48.7386 10.3652 48.39 10.7234C48.0511 11.072 47.8817 11.5561 47.8817 12.1757C47.8817 12.7954 48.0511 13.2891 48.39 13.6571C48.7386 14.0153 49.1597 14.1944 49.6535 14.1944C50.1473 14.1944 50.5636 14.0153 50.9025 13.6571C51.251 13.2988 51.4253 12.8099 51.4253 12.1902Z" fill="#1D1D26"/>
<path d="M58.9585 16.3584C58.1646 16.3584 57.4481 16.1889 56.8091 15.85C56.1798 15.5112 55.6811 15.027 55.3133 14.3977C54.955 13.7684 54.7759 13.0326 54.7759 12.1902C54.7759 11.3576 54.9599 10.6266 55.3277 9.99727C55.6957 9.35821 56.1991 8.8693 56.8382 8.53043C57.4772 8.19156 58.1937 8.02213 58.9875 8.02213C59.7815 8.02213 60.498 8.19156 61.137 8.53043C61.776 8.8693 62.2795 9.35821 62.6473 9.99727C63.0153 10.6266 63.1993 11.3576 63.1993 12.1902C63.1993 13.0229 63.0104 13.7587 62.6329 14.3977C62.2649 15.027 61.7566 15.5112 61.1079 15.85C60.4689 16.1889 59.7524 16.3584 58.9585 16.3584ZM58.9585 14.2089C59.4329 14.2089 59.8347 14.0347 60.1639 13.6861C60.5028 13.3375 60.6723 12.839 60.6723 12.1902C60.6723 11.5415 60.5077 11.0429 60.1784 10.6944C59.8589 10.3458 59.462 10.1715 58.9875 10.1715C58.5035 10.1715 58.1017 10.3458 57.7821 10.6944C57.4626 11.0332 57.3029 11.5319 57.3029 12.1902C57.3029 12.839 57.4578 13.3375 57.7676 13.6861C58.0871 14.0347 58.4841 14.2089 58.9585 14.2089Z" fill="#1D1D26"/>
<path d="M65.3301 7.29608C64.8944 7.29608 64.5362 7.17021 64.2554 6.91847C63.9843 6.65706 63.8488 6.33756 63.8488 5.95996C63.8488 5.57268 63.9843 5.25317 64.2554 5.00144C64.5362 4.74002 64.8944 4.60931 65.3301 4.60931C65.7561 4.60931 66.1046 4.74002 66.3758 5.00144C66.6565 5.25317 66.7969 5.57268 66.7969 5.95996C66.7969 6.33756 66.6565 6.65706 66.3758 6.91847C66.1046 7.17021 65.7561 7.29608 65.3301 7.29608ZM66.5645 8.13841V16.2422H64.0811V8.13841H66.5645Z" fill="#1D1D26"/>
<path d="M70.4118 9.28562C70.6543 8.90805 70.9881 8.60305 71.4139 8.37068C71.8398 8.13831 72.3387 8.02213 72.91 8.02213C73.5783 8.02213 74.1834 8.19156 74.7252 8.53043C75.2677 8.8693 75.6935 9.35343 76.0034 9.98273C76.3232 10.6121 76.4827 11.3431 76.4827 12.1757C76.4827 13.0084 76.3232 13.7442 76.0034 14.3832C75.6935 15.0126 75.2677 15.5015 74.7252 15.85C74.1834 16.1889 73.5783 16.3584 72.91 16.3584C72.3485 16.3584 71.8496 16.2421 71.4139 16.0098C70.9881 15.7774 70.6543 15.4773 70.4118 15.1093V20.1053H67.9285V8.13831H70.4118V9.28562ZM73.9557 12.1757C73.9557 11.5561 73.7814 11.072 73.4329 10.7234C73.0941 10.3652 72.6725 10.186 72.1693 10.186C71.6753 10.186 71.2544 10.3652 70.9058 10.7234C70.5671 11.0817 70.3978 11.5706 70.3978 12.1902C70.3978 12.8099 70.5671 13.2988 70.9058 13.6571C71.2544 14.0153 71.6753 14.1944 72.1693 14.1944C72.6634 14.1944 73.0843 14.0153 73.4329 13.6571C73.7814 13.2891 73.9557 12.7954 73.9557 12.1757Z" fill="#1D1D26"/>
<path d="M80.6464 16.3584C79.9394 16.3584 79.3105 16.2373 78.7588 15.9953C78.2065 15.7532 77.7708 15.424 77.4518 15.0077C77.132 14.5817 76.9528 14.1072 76.9142 13.5844H79.3688C79.3976 13.8652 79.5283 14.0928 79.7609 14.267C79.9928 14.4413 80.2788 14.5285 80.6176 14.5285C80.9275 14.5285 81.1643 14.4703 81.3294 14.3542C81.5037 14.2283 81.5908 14.0685 81.5908 13.8749C81.5908 13.6425 81.4693 13.4731 81.2275 13.3666C80.9851 13.2504 80.593 13.1245 80.0512 12.989C79.47 12.8534 78.9858 12.713 78.5986 12.5678C78.2114 12.4129 77.8776 12.1757 77.5965 11.8562C77.3161 11.527 77.1756 11.0865 77.1756 10.5346C77.1756 10.0699 77.3014 9.64872 77.553 9.27107C77.8144 8.88382 78.1924 8.57884 78.6858 8.35615C79.1896 8.13346 79.7848 8.02213 80.4721 8.02213C81.4889 8.02213 82.2879 8.27386 82.8684 8.77732C83.4594 9.28077 83.7981 9.94886 83.8852 10.7815H81.5908C81.5515 10.5007 81.4257 10.278 81.2128 10.1134C81.0097 9.94885 80.7384 9.86657 80.3997 9.86657C80.1095 9.86657 79.8867 9.92461 79.7314 10.0408C79.5768 10.1473 79.4995 10.2974 79.4995 10.491C79.4995 10.7234 79.6204 10.8977 79.8621 11.0138C80.1137 11.1301 80.5016 11.2462 81.0244 11.3624C81.6246 11.5173 82.1137 11.6722 82.491 11.8272C82.8684 11.9724 83.198 12.2144 83.4784 12.5533C83.7693 12.8825 83.919 13.3278 83.9288 13.8894C83.9288 14.3639 83.7932 14.7899 83.5219 15.1674C83.2605 15.5354 82.8782 15.8258 82.3751 16.0388C81.8811 16.2518 81.3048 16.3584 80.6464 16.3584Z" fill="#1D1D26"/>
<path d="M93.0144 8.13834V16.2422H90.531V15.1385C90.2794 15.4967 89.9357 15.7871 89.5001 16.0098C89.0742 16.2228 88.5999 16.3293 88.077 16.3293C87.4572 16.3293 86.9098 16.1938 86.4355 15.9227C85.9611 15.6419 85.5936 15.2401 85.3322 14.7172C85.0708 14.1944 84.9401 13.5797 84.9401 12.8729V8.13834H87.4087V12.5388C87.4087 13.081 87.5493 13.5022 87.8297 13.8023C88.1108 14.1025 88.4881 14.2525 88.9625 14.2525C89.4467 14.2525 89.8289 14.1025 90.11 13.8023C90.3911 13.5022 90.531 13.081 90.531 12.5388V8.13834H93.0144Z" fill="#1D1D26"/>
<path d="M104.703 8.05124C105.71 8.05124 106.509 8.35622 107.099 8.96616C107.7 9.57613 108 10.4233 108 11.5077V16.2422H105.531V11.8417C105.531 11.3189 105.391 10.9171 105.11 10.6363C104.838 10.3459 104.461 10.2006 103.977 10.2006C103.493 10.2006 103.11 10.3459 102.829 10.6363C102.559 10.9171 102.423 11.3189 102.423 11.8417V16.2422H99.9538V11.8417C99.9538 11.3189 99.814 10.9171 99.5329 10.6363C99.2616 10.3459 98.8843 10.2006 98.4001 10.2006C97.9159 10.2006 97.5336 10.3459 97.2525 10.6363C96.982 10.9171 96.8464 11.3189 96.8464 11.8417V16.2422H94.3629V8.13838H96.8464V9.15498C97.0979 8.81612 97.4268 8.54987 97.8337 8.35622C98.2406 8.1529 98.7001 8.05124 99.2131 8.05124C99.8231 8.05124 100.366 8.18195 100.84 8.44336C101.324 8.70478 101.701 9.07754 101.973 9.56165C102.254 9.11626 102.636 8.75319 103.12 8.47241C103.604 8.19163 104.132 8.05124 104.703 8.05124Z" fill="#1D1D26"/>
</g>
<defs>
<clipPath id="clip0_32_5020">
<rect width="108" height="23" fill="white"/>
</clipPath>
</defs>
</svg>
