<svg width="108" height="23" viewBox="0 0 108 23" fill="none" xmlns="http://www.w3.org/2000/svg">
<path d="M12.5 20.919H31.8677V2.08093H12.5V20.919ZM28.1399 9.68741H24.0474V5.7068H28.1399V9.68741ZM16.227 5.7068H20.3218V13.3125H28.1399V17.2931H16.227V5.7068ZM44.4797 2.08093C42.5644 2.08093 40.6921 2.63335 39.0996 3.66833C37.5071 4.70331 36.2659 6.17436 35.533 7.89547C34.8 9.61661 34.6083 11.5104 34.9819 13.3375C35.3556 15.1646 36.2778 16.8429 37.6321 18.1602C38.9864 19.4776 40.7119 20.3746 42.5904 20.7381C44.469 21.1014 46.416 20.915 48.1855 20.2021C49.955 19.4892 51.4674 18.2819 52.5315 16.7329C53.5956 15.1839 54.1635 13.3629 54.1635 11.5C54.1605 9.00277 53.1393 6.60871 51.3238 4.84293C49.5084 3.07715 47.0471 2.08385 44.4797 2.08093ZM44.4797 17.2931C43.3017 17.2931 42.1501 16.9534 41.1707 16.3168C40.1912 15.6803 39.4278 14.7755 38.977 13.7169C38.5262 12.6584 38.4083 11.4936 38.6381 10.3698C38.8679 9.24601 39.4352 8.21378 40.2681 7.40358C41.1011 6.5934 42.1624 6.04165 43.3177 5.81812C44.473 5.59459 45.6706 5.70932 46.759 6.14779C47.8473 6.58625 48.7775 7.32878 49.4319 8.28149C50.0864 9.23412 50.4357 10.3542 50.4357 11.5C50.4333 13.0357 49.805 14.5079 48.6886 15.5938C47.5721 16.6798 46.0586 17.2908 44.4797 17.2931ZM88.8169 2.08093C86.9013 2.08079 85.0292 2.63308 83.4366 3.66797C81.844 4.70286 80.6028 6.17386 79.8697 7.89496C79.1366 9.61602 78.9447 11.51 79.3183 13.3371C79.6918 15.1643 80.6141 16.8426 81.9684 18.16C83.3226 19.4773 85.0481 20.3745 86.927 20.738C88.8048 21.1014 90.7522 20.915 92.5221 20.2021C94.2912 19.4892 95.8036 18.282 96.8675 16.733C97.9322 15.184 98.5 13.3629 98.5 11.5C98.497 9.00292 97.4761 6.60895 95.6609 4.84319C93.8457 3.07743 91.3842 2.08405 88.8169 2.08093ZM88.8169 17.2931C87.639 17.2933 86.4875 16.9536 85.5077 16.3172C84.5282 15.6807 83.7646 14.776 83.3137 13.7174C82.8628 12.6589 82.7448 11.494 82.9745 10.3702C83.2042 9.24646 83.7714 8.21414 84.6044 7.40385C85.4373 6.59358 86.4988 6.04176 87.6541 5.81817C88.8094 5.59458 90.0069 5.70927 91.095 6.14772C92.1838 6.58617 93.1141 7.32869 93.7687 8.28142C94.4226 9.23412 94.7722 10.3542 94.7722 11.5C94.7699 13.0356 94.1417 14.5076 93.025 15.5935C91.909 16.6795 90.3958 17.2906 88.8169 17.2931ZM66.6479 2.08093C64.7326 2.08093 62.8603 2.63335 61.2679 3.66833C59.6753 4.70331 58.4342 6.17436 57.7012 7.89547C56.9683 9.61661 56.7765 11.5104 57.1502 13.3375C57.5238 15.1646 58.4461 16.8429 59.8004 18.1602C61.1547 19.4776 62.8802 20.3746 64.7587 20.7381C66.6371 21.1014 68.5842 20.915 70.3538 20.2021C72.1233 19.4892 73.6356 18.2819 74.6997 16.7329C75.7638 15.1839 76.3318 13.3629 76.3318 11.5C76.3287 9.00277 75.3075 6.60871 73.4921 4.84293C71.6767 3.07715 69.2153 2.08385 66.6479 2.08093ZM66.6479 17.2931C65.5504 17.2937 64.4741 16.9992 63.5377 16.4423C62.6014 15.8854 61.8414 15.0877 61.3418 14.1372C60.8422 13.1867 60.6223 12.1204 60.7064 11.0561C60.7905 9.99168 61.1753 8.9706 61.8184 8.10552C62.4615 7.24048 63.3378 6.56506 64.3506 6.15386C65.3635 5.74264 66.4734 5.61164 67.5579 5.77528C68.6425 5.93894 69.6595 6.39087 70.4966 7.08123C71.3338 7.77158 71.9585 8.67353 72.3019 9.68741H66.6479V13.3125H72.3019C71.9086 14.4695 71.1508 15.4767 70.1359 16.1911C69.1211 16.9057 67.9008 17.2912 66.6479 17.2931Z" fill="#1D1D26"/>
</svg>
